<?xml version="1.0" standalone="no"?>
<!DOCTYPE svg PUBLIC "-//W3C//DTD SVG 20010904//EN"
 "http://www.w3.org/TR/2001/REC-SVG-20010904/DTD/svg10.dtd">
<svg version="1.0" xmlns="http://www.w3.org/2000/svg"
 width="598.000000pt" height="598.000000pt" viewBox="0 0 598.000000 598.000000"
 preserveAspectRatio="xMidYMid meet">

<g transform="translate(0.000000,598.000000) scale(0.100000,-0.100000)"
fill="#000000" stroke="none">
<path d="M1713 5733 c9 -2 25 -2 35 0 9 3 1 5 -18 5 -19 0 -27 -2 -17 -5z"/>
<path d="M4243 5730 c64 -8 82 -18 49 -27 -12 -3 -19 -9 -16 -14 3 -5 -9 -12
-27 -16 -29 -6 -30 -7 -14 -19 20 -15 29 -61 14 -70 -6 -3 -5 -11 2 -20 6 -7
10 -28 7 -46 -3 -33 -3 -33 39 -31 24 0 43 -1 43 -3 0 -2 -12 -10 -27 -18 -16
-8 -23 -15 -17 -16 15 0 67 41 60 48 -3 3 2 11 12 18 27 20 24 120 -6 161 -15
22 -28 30 -39 26 -11 -4 -14 -3 -9 5 10 16 -35 32 -87 31 -38 -1 -37 -2 16 -9z
m103 -42 c4 -7 3 -8 -4 -4 -8 5 -12 -1 -12 -16 -1 -21 -1 -22 -11 -4 -9 14 -8
20 2 27 18 11 17 11 25 -3z m7 -38 c-3 -12 -8 -19 -11 -16 -5 6 5 36 12 36 2
0 2 -9 -1 -20z m27 -67 c0 -23 -4 -33 -9 -27 -9 8 -4 64 5 64 2 0 4 -17 4 -37z
m-25 18 c3 -5 1 -12 -5 -16 -5 -3 -10 1 -10 9 0 18 6 21 15 7z"/>
<path d="M4105 5705 c-25 -12 -26 -14 -5 -9 28 7 60 23 45 23 -5 0 -23 -6 -40
-14z"/>
<path d="M1901 5686 c10 -9 129 -66 129 -61 0 5 -116 65 -126 65 -4 0 -5 -2
-3 -4z"/>
<path d="M1596 5645 c-3 -9 -5 -38 -5 -63 2 -46 2 -46 9 13 7 64 6 76 -4 50z"/>
<path d="M2052 5607 c10 -8 14 -18 10 -22 -4 -5 -1 -5 7 0 9 5 12 4 8 -3 -4
-5 -19 -9 -33 -7 -26 2 -26 2 -19 -54 9 -72 39 -107 98 -113 53 -6 89 6 81 27
-4 8 -1 15 6 15 8 0 10 8 7 21 -4 16 -3 18 9 8 7 -6 12 -15 9 -18 -2 -4 3 -8
11 -8 10 0 6 9 -12 28 -15 16 -30 28 -33 27 -19 -2 -31 3 -26 11 3 5 0 13 -6
17 -7 4 -9 3 -5 -4 9 -14 -13 -27 -26 -14 -6 6 -6 12 2 17 15 9 -7 36 -25 29
-7 -3 -16 0 -21 7 -5 8 -3 10 7 5 8 -4 5 0 -6 9 -11 9 -29 21 -40 26 -18 9
-19 9 -3 -4z m145 -183 c-3 -3 -12 -4 -19 -1 -8 3 -5 6 6 6 11 1 17 -2 13 -5z"/>
<path d="M3784 5512 c-22 -20 -33 -31 -24 -24 9 6 20 10 23 7 4 -3 5 -2 3 1
-3 3 7 17 22 30 15 13 25 23 22 24 -3 0 -23 -17 -46 -38z"/>
<path d="M1600 5521 c0 -6 4 -13 10 -16 6 -3 7 1 4 9 -7 18 -14 21 -14 7z"/>
<path d="M2230 5430 c0 -14 15 -19 29 -11 9 6 7 10 -8 14 -12 3 -21 1 -21 -3z"/>
<path d="M3703 5427 c1 -7 -3 -11 -10 -10 -15 3 -104 -97 -97 -109 3 -5 12 -4
19 2 7 6 24 8 37 5 19 -5 28 1 47 26 16 21 20 34 13 37 -8 2 -7 10 4 27 13 20
13 23 -1 28 -8 4 -14 1 -12 -6z"/>
<path d="M1770 5420 c8 -5 20 -10 25 -10 6 0 3 5 -5 10 -8 5 -19 10 -25 10 -5
0 -3 -5 5 -10z"/>
<path d="M2290 5417 c0 -2 15 -16 33 -33 l32 -29 -29 33 c-28 30 -36 37 -36
29z"/>
<path d="M4135 5410 c-3 -5 -3 -10 2 -10 10 0 -19 -20 -29 -20 -4 0 -5 8 -2
18 5 14 4 14 -5 2 -5 -8 -13 -11 -17 -7 -4 4 -13 -1 -20 -11 -12 -15 -15 -15
-23 -2 -8 11 -6 17 7 22 11 4 5 7 -18 7 -24 1 -31 -2 -21 -8 11 -7 9 -10 -10
-13 -19 -2 -24 -9 -24 -33 0 -25 4 -30 22 -29 13 1 20 -3 17 -7 -3 -5 -10 -6
-16 -3 -7 4 -8 2 -4 -4 5 -9 14 -7 32 4 24 17 34 31 12 18 -8 -4 -9 -3 -5 2 5
5 16 9 25 9 9 0 16 6 14 13 -1 8 2 11 7 7 10 -6 111 40 111 51 0 2 -9 0 -19
-6 -25 -13 -34 -13 -26 0 3 6 4 10 1 10 -3 0 -8 -4 -11 -10z"/>
<path d="M1810 5406 c0 -3 14 -12 30 -21 17 -9 30 -13 30 -11 0 3 -13 12 -30
21 -16 9 -30 13 -30 11z"/>
<path d="M2190 5390 c0 -4 11 -12 25 -18 20 -9 25 -9 25 2 0 8 -11 16 -25 18
-14 3 -25 2 -25 -2z"/>
<path d="M2324 5339 c-3 -5 0 -8 7 -7 9 2 12 -7 10 -30 -2 -22 2 -34 13 -38
12 -5 14 -10 6 -19 -13 -16 -2 -25 41 -32 24 -3 28 -1 22 13 -4 12 -3 15 6 10
6 -4 -2 15 -19 43 -18 28 -37 54 -43 58 -18 11 -36 12 -43 2z m76 -60 c15 -28
5 -23 -15 7 -9 15 -12 23 -6 20 6 -4 16 -16 21 -27z"/>
<path d="M1970 5306 c0 -2 8 -10 18 -17 15 -13 16 -12 3 4 -13 16 -21 21 -21
13z"/>
<path d="M2290 5302 c0 -5 9 -17 20 -27 20 -18 20 -17 20 8 0 20 -5 27 -20 27
-11 0 -20 -4 -20 -8z"/>
<path d="M3955 5279 c3 -3 -2 -12 -10 -19 -8 -7 -15 -9 -15 -4 0 4 -11 -2 -23
-15 -22 -20 -25 -20 -38 -5 -12 15 -15 14 -31 -6 -17 -21 -17 -25 -3 -40 11
-12 12 -19 3 -28 -7 -7 -8 -12 -4 -12 5 0 3 -8 -5 -17 -11 -16 -11 -16 2 -3
81 80 146 157 134 157 -8 0 -12 -4 -10 -8z m-50 -59 c-30 -31 -69 -44 -45 -15
7 8 16 13 20 10 4 -2 15 4 25 15 10 11 20 20 23 20 3 0 -7 -13 -23 -30z"/>
<path d="M3510 5180 c-30 -59 -42 -98 -15 -50 7 14 17 24 22 23 4 -1 7 7 6 18
-2 11 1 18 6 14 5 -3 13 0 17 6 4 8 3 9 -4 5 -15 -9 -15 -1 -2 25 6 10 8 19 5
19 -2 0 -18 -27 -35 -60z"/>
<path d="M2461 5180 c14 -31 19 -36 19 -24 0 6 -7 19 -16 30 -14 18 -14 18 -3
-6z"/>
<path d="M2110 5166 c0 -2 8 -10 18 -17 15 -13 16 -12 3 4 -13 16 -21 21 -21
13z"/>
<path d="M2490 5119 c0 -4 7 -22 15 -40 8 -19 14 -27 14 -19 0 14 -28 72 -29
59z"/>
<path d="M3800 5090 c-6 -11 -8 -20 -6 -20 3 0 10 9 16 20 6 11 8 20 6 20 -3
0 -10 -9 -16 -20z"/>
<path d="M3456 5060 c-18 -46 -20 -70 -6 -70 5 0 7 6 4 14 -3 7 2 31 11 51 8
21 14 40 11 42 -2 2 -11 -14 -20 -37z"/>
<path d="M2980 5084 c100 -5 133 -11 125 -24 -3 -6 0 -10 7 -10 11 0 11 -2 0
-9 -11 -6 -10 -11 3 -25 9 -9 24 -16 32 -16 9 0 13 -3 9 -7 -14 -14 37 -31 61
-20 27 12 30 25 7 34 -12 4 -13 8 -3 14 10 6 10 11 0 23 -11 13 -11 16 0 17 8
1 -2 5 -21 10 -19 5 -96 11 -170 13 -74 2 -97 2 -50 0z"/>
<path d="M2808 5073 c6 -2 18 -2 25 0 6 3 1 5 -13 5 -14 0 -19 -2 -12 -5z"/>
<path d="M2190 5050 c6 -11 13 -20 16 -20 2 0 0 9 -6 20 -6 11 -13 20 -16 20
-2 0 0 -9 6 -20z"/>
<path d="M2738 5063 c6 -2 18 -2 25 0 6 3 1 5 -13 5 -14 0 -19 -2 -12 -5z"/>
<path d="M2698 5053 c7 -3 16 -2 19 1 4 3 -2 6 -13 5 -11 0 -14 -3 -6 -6z"/>
<path d="M3248 5053 c6 -2 18 -2 25 0 6 3 1 5 -13 5 -14 0 -19 -2 -12 -5z"/>
<path d="M3754 5009 c-14 -28 -24 -53 -22 -55 2 -2 16 21 31 51 15 30 25 55
22 55 -3 0 -16 -23 -31 -51z"/>
<path d="M2625 5040 c-15 -5 -9 -7 21 -6 23 0 40 4 37 9 -5 9 -32 8 -58 -3z"/>
<path d="M2521 5028 c-2 -24 9 -27 49 -12 19 7 30 13 23 13 -6 1 -23 -3 -37
-9 -20 -7 -26 -6 -29 8 -4 16 -5 16 -6 0z"/>
<path d="M3338 5033 c7 -3 16 -2 19 1 4 3 -2 6 -13 5 -11 0 -14 -3 -6 -6z"/>
<path d="M3408 5013 c7 -3 16 -2 19 1 4 3 -2 6 -13 5 -11 0 -14 -3 -6 -6z"/>
<path d="M3370 5000 c8 -5 22 -9 30 -9 10 0 8 3 -5 9 -27 12 -43 12 -25 0z"/>
<path d="M2221 4995 c0 -5 6 -21 14 -35 8 -14 14 -20 14 -15 0 6 -6 21 -14 35
-8 14 -14 21 -14 15z"/>
<path d="M3258 4993 c7 -3 16 -2 19 1 4 3 -2 6 -13 5 -11 0 -14 -3 -6 -6z"/>
<path d="M3711 4908 c-9 -32 -9 -32 -10 -5 -1 34 -21 36 -21 2 0 -30 -16 -33
-25 -4 -10 29 -29 18 -33 -19 -2 -24 1 -32 13 -32 16 0 56 -20 65 -32 3 -4 18
-1 34 7 35 19 37 19 30 0 -7 -16 11 -21 21 -5 3 5 -10 20 -30 32 -32 20 -36
27 -31 56 3 17 3 32 1 32 -3 0 -9 -15 -14 -32z"/>
<path d="M2251 4925 c1 -19 18 -51 18 -35 0 8 -4 22 -9 30 -5 8 -9 11 -9 5z"/>
<path d="M818 4873 c6 -2 18 -2 25 0 6 3 1 5 -13 5 -14 0 -19 -2 -12 -5z"/>
<path d="M768 4863 c7 -3 16 -2 19 1 4 3 -2 6 -13 5 -11 0 -14 -3 -6 -6z"/>
<path d="M3080 4853 c-8 -4 -20 -13 -27 -22 -16 -22 11 -51 46 -51 47 0 220
-48 303 -84 45 -19 77 -31 71 -25 -5 5 -41 23 -79 39 -38 16 -63 30 -56 30 10
0 9 4 -3 16 -12 13 -19 14 -28 5 -6 -6 -18 -11 -27 -10 -10 0 -11 2 -2 6 6 2
10 9 6 14 -3 5 -1 9 4 9 20 0 -1 40 -23 46 -13 3 -26 12 -29 20 -4 10 -24 14
-73 13 -37 0 -75 -3 -83 -6z m17 -59 c-3 -3 -12 -4 -19 -1 -8 3 -5 6 6 6 11 1
17 -2 13 -5z m160 -30 c-3 -3 -12 -4 -19 -1 -8 3 -5 6 6 6 11 1 17 -2 13 -5z
m70 -20 c-3 -3 -12 -4 -19 -1 -8 3 -5 6 6 6 11 1 17 -2 13 -5z"/>
<path d="M926 4830 c35 -41 37 -50 18 -65 -11 -9 -14 -14 -6 -15 6 0 12 -8 13
-17 1 -12 4 -10 9 7 5 14 8 -59 8 -170 -1 -110 -4 -178 -8 -155 l-7 40 -2 -52
c0 -29 -5 -53 -11 -53 -6 0 -10 -28 -10 -65 0 -37 4 -65 10 -65 6 0 10 -8 10
-17 0 -15 2 -15 9 -4 7 11 11 6 14 -20 2 -19 5 105 5 274 2 330 1 339 -49 382
l-24 20 21 -25z"/>
<path d="M2126 4777 c-31 -29 -58 -52 -60 -50 -2 2 -33 -29 -69 -69 -54 -59
-64 -75 -54 -87 10 -12 9 -14 -5 -8 -16 6 -43 -15 -32 -26 6 -6 60 21 82 41 7
6 21 12 30 13 11 0 12 2 5 6 -16 6 -17 33 -1 33 6 0 3 7 -8 15 -12 10 -14 14
-4 13 8 -2 14 2 15 9 0 15 13 28 28 28 7 1 11 7 9 14 -1 7 2 9 9 6 7 -5 1 -17
-16 -35 -25 -27 -27 -50 -4 -50 15 0 39 26 32 34 -4 3 2 6 13 7 18 0 18 1 0 8
-18 7 -18 8 0 26 18 17 19 17 32 -11 9 -20 12 -22 9 -7 -3 12 0 24 6 26 6 2
10 20 10 40 0 20 3 37 6 37 4 0 12 9 19 20 19 31 8 24 -52 -33z m7 -29 c-24
-26 -59 -46 -48 -26 16 28 48 57 57 52 5 -3 1 -15 -9 -26z m-123 -112 c0 -2
-17 -16 -37 -31 l-38 -26 35 30 c34 31 40 35 40 27z"/>
<path d="M3800 4816 c0 -2 8 -10 18 -17 15 -13 16 -12 3 4 -13 16 -21 21 -21
13z"/>
<path d="M2617 4783 c-4 -3 -7 -10 -7 -14 0 -10 48 -18 71 -12 15 4 17 8 8 19
-12 14 -60 19 -72 7z"/>
<path d="M2878 4783 c6 -2 18 -2 25 0 6 3 1 5 -13 5 -14 0 -19 -2 -12 -5z"/>
<path d="M3840 4787 c0 -2 15 -16 33 -33 l32 -29 -29 33 c-28 30 -36 37 -36
29z"/>
<path d="M2735 4760 c-25 -11 1 -11 35 0 20 6 21 8 5 8 -11 0 -29 -3 -40 -8z"/>
<path d="M5301 4744 c0 -11 3 -14 6 -6 3 7 2 16 -1 19 -3 4 -6 -2 -5 -13z"/>
<path d="M2608 4738 c-10 -6 -10 -8 2 -8 9 -1 5 -6 -10 -15 -35 -20 -25 -18
48 8 l64 24 -46 0 c-25 0 -51 -4 -58 -9z"/>
<path d="M3930 4707 c0 -2 15 -16 33 -33 l32 -29 -29 33 c-28 30 -36 37 -36
29z"/>
<path d="M2523 4685 c0 -7 6 -11 14 -8 7 3 13 6 13 8 0 2 -6 5 -13 8 -8 3 -14
-1 -14 -8z"/>
<path d="M2393 4603 c0 -9 4 -10 14 -2 7 6 13 12 13 14 0 1 -6 2 -13 2 -8 0
-14 -6 -14 -14z"/>
<path d="M4055 4563 c27 -35 50 -63 52 -63 7 0 -60 89 -80 107 -11 10 2 -10
28 -44z"/>
<path d="M2204 4602 c-35 -22 -124 -107 -124 -118 0 -7 -4 -14 -10 -16 -5 -1
-12 -17 -16 -34 -5 -26 -2 -33 21 -48 15 -10 24 -12 20 -5 -5 8 -4 10 3 5 7
-4 17 -17 23 -29 7 -12 8 -19 4 -15 -12 11 -35 -11 -28 -28 3 -8 -1 -14 -8
-14 -7 0 -10 -3 -6 -6 3 -4 -6 -25 -22 -48 -27 -40 -44 -76 -37 -76 2 0 17 24
34 53 46 80 116 169 206 259 44 45 73 76 64 69 -10 -7 -18 -11 -18 -7 0 4 -14
-1 -31 -10 -17 -8 -28 -11 -25 -6 4 6 3 13 -2 16 -5 3 -7 19 -4 36 3 24 1 30
-14 30 -11 0 -24 -4 -30 -8z"/>
<path d="M3570 4606 c0 -2 14 -14 30 -26 17 -12 30 -19 30 -16 0 2 -13 14 -30
26 -16 12 -30 19 -30 16z"/>
<path d="M2335 4580 c-8 -13 23 -20 34 -6 7 8 5 12 -9 13 -11 1 -22 -2 -25 -7z"/>
<path d="M5286 4574 c-4 -9 -4 -19 -1 -22 2 -3 7 3 11 12 4 9 4 19 1 22 -2 3
-7 -3 -11 -12z"/>
<path d="M3650 4547 c0 -2 15 -16 33 -33 l32 -29 -29 33 c-28 30 -36 37 -36
29z"/>
<path d="M1867 4498 c-28 -39 -46 -72 -22 -43 9 11 19 19 23 19 4 -1 6 3 4 8
-2 6 5 19 14 29 9 11 14 19 11 19 -3 0 -17 -15 -30 -32z"/>
<path d="M4130 4460 c6 -11 13 -20 16 -20 2 0 0 9 -6 20 -6 11 -13 20 -16 20
-2 0 0 -9 6 -20z"/>
<path d="M5288 4444 c-5 -4 -8 -21 -8 -38 1 -26 2 -28 11 -13 11 19 8 63 -3
51z"/>
<path d="M3780 4415 c13 -14 26 -25 28 -25 3 0 -5 11 -18 25 -13 14 -26 25
-28 25 -3 0 5 -11 18 -25z"/>
<path d="M5313 4405 c0 -22 2 -30 4 -17 2 12 2 30 0 40 -3 9 -5 -1 -4 -23z"/>
<path d="M4160 4368 c0 -4 -9 -8 -19 -8 -23 0 -40 -22 -23 -28 7 -2 12 -10 12
-18 0 -8 7 -14 15 -14 9 0 12 6 8 18 -5 16 -5 16 8 -1 13 -17 15 -16 26 13 8
21 8 28 0 23 -6 -4 -8 -1 -5 9 4 9 0 15 -8 15 -8 0 -14 -4 -14 -9z"/>
<path d="M5281 4353 c4 -22 -2 -66 -7 -60 -17 16 -37 -30 -44 -100 -4 -41 -12
-78 -18 -82 -6 -3 -13 -20 -16 -36 -2 -17 -5 -30 -6 -30 -2 0 -4 -10 -5 -22
-1 -14 2 -20 11 -16 8 3 14 11 14 19 0 8 5 14 10 14 6 0 10 -6 10 -12 0 -8 3
-9 8 -3 12 17 35 17 28 0 -3 -9 -2 -13 4 -10 6 3 10 0 11 -7 0 -7 7 1 14 17
15 35 31 302 16 270 -8 -16 -10 -12 -10 23 -1 23 -5 42 -11 42 -5 0 -9 -3 -9
-7z m26 -125 c-3 -8 -6 -5 -6 6 -1 11 2 17 5 13 3 -3 4 -12 1 -19z"/>
<path d="M1742 4285 c-30 -62 -27 -71 4 -12 14 27 24 51 22 53 -3 2 -14 -17
-26 -41z"/>
<path d="M3850 4326 c0 -2 8 -10 18 -17 15 -13 16 -12 3 4 -13 16 -21 21 -21
13z"/>
<path d="M4211 4325 c0 -5 8 -26 19 -45 11 -19 19 -30 19 -25 0 6 -8 26 -19
45 -11 19 -19 31 -19 25z"/>
<path d="M4191 4288 c-1 -20 3 -39 9 -43 6 -4 6 -15 -1 -32 -11 -29 5 -57 28
-49 7 3 13 -1 13 -10 0 -8 7 -26 16 -40 9 -13 14 -27 10 -31 -3 -3 0 -13 7
-21 10 -13 9 -14 -1 -8 -11 7 -12 -2 -7 -40 12 -98 16 -114 26 -108 6 3 18 -1
27 -10 11 -10 22 -12 32 -6 12 7 11 19 -4 84 -10 42 -21 74 -24 72 -4 -2 -7
10 -8 27 -1 18 -9 48 -18 67 -9 19 -14 27 -11 17 16 -59 18 -70 6 -63 -6 4
-11 18 -11 31 0 13 -4 27 -10 30 -5 3 -10 16 -10 28 0 18 2 19 10 7 15 -23 11
2 -5 30 -15 29 -27 28 -38 -2 -4 -12 -10 -19 -13 -16 -2 3 1 17 7 32 10 21 9
29 -3 43 -9 10 -18 25 -21 33 -3 8 -6 -2 -6 -22z"/>
<path d="M3889 4275 c5 -11 17 -29 26 -40 l16 -20 -10 20 c-5 11 -17 29 -26
40 l-16 20 10 -20z"/>
<path d="M4150 4266 c0 -8 5 -18 10 -21 6 -3 10 3 10 14 0 12 -4 21 -10 21 -5
0 -10 -6 -10 -14z"/>
<path d="M1681 4134 c-18 -48 -30 -92 -28 -97 2 -6 9 10 16 36 8 27 18 44 24
40 6 -3 7 -1 3 6 -8 13 2 53 12 47 4 -2 7 9 8 25 1 16 0 29 -1 29 -2 0 -17
-39 -34 -86z"/>
<path d="M3947 4175 c9 -19 18 -33 21 -31 4 5 -26 66 -33 66 -3 0 3 -16 12
-35z"/>
<path d="M2002 4135 c-17 -37 -14 -45 4 -12 9 16 14 31 11 33 -2 2 -9 -7 -15
-21z"/>
<path d="M4991 4140 c-1 -8 -25 -39 -53 -70 l-53 -55 59 56 c35 34 56 62 53
70 -4 11 -6 11 -6 -1z"/>
<path d="M3971 4125 c0 -5 6 -21 14 -35 8 -14 14 -20 14 -15 0 6 -6 21 -14 35
-8 14 -14 21 -14 15z"/>
<path d="M1045 4060 c21 -22 41 -40 44 -40 3 0 -13 18 -34 40 -21 22 -41 40
-44 40 -3 0 13 -18 34 -40z"/>
<path d="M4242 4075 c0 -16 2 -22 5 -12 2 9 2 23 0 30 -3 6 -5 -1 -5 -18z"/>
<path d="M1976 4075 c-9 -26 -7 -32 5 -12 6 10 9 21 6 23 -2 3 -7 -2 -11 -11z"/>
<path d="M1954 4015 c-4 -18 -9 -23 -14 -15 -5 8 -12 0 -21 -23 -7 -20 -16
-34 -21 -31 -4 3 -13 -7 -18 -21 -13 -34 -13 -48 1 -40 6 4 9 0 7 -11 -2 -12
2 -18 11 -16 12 3 12 0 2 -12 -6 -8 -8 -16 -4 -18 4 -1 492 -1 1083 2 l1075 5
-1067 3 c-847 1 -1068 5 -1068 15 0 6 11 50 25 97 13 46 22 86 20 88 -2 3 -7
-8 -11 -23z m-17 -47 c-3 -8 -6 -5 -6 6 -1 11 2 17 5 13 3 -3 4 -12 1 -19z"/>
<path d="M1113 4002 c10 -10 14 -22 10 -27 -5 -4 -2 -5 5 -1 11 6 10 12 -4 27
-9 10 -19 19 -22 19 -3 0 2 -8 11 -18z"/>
<path d="M4854 3998 l-19 -23 23 19 c21 18 27 26 19 26 -2 0 -12 -10 -23 -22z"/>
<path d="M1070 3996 c0 -2 7 -7 16 -10 8 -3 12 -2 9 4 -6 10 -25 14 -25 6z"/>
<path d="M5150 3974 c0 -8 5 -12 10 -9 6 4 8 11 5 16 -9 14 -15 11 -15 -7z"/>
<path d="M710 3961 c5 -11 15 -23 21 -27 6 -3 3 5 -6 20 -20 30 -30 35 -15 7z"/>
<path d="M1153 3967 c0 -8 6 -14 14 -14 9 0 10 4 2 14 -6 7 -12 13 -14 13 -1
0 -2 -6 -2 -13z"/>
<path d="M1631 3964 c0 -11 3 -14 6 -6 3 7 2 16 -1 19 -3 4 -6 -2 -5 -13z"/>
<path d="M4809 3963 c-13 -16 -12 -17 4 -4 9 7 17 15 17 17 0 8 -8 3 -21 -13z"/>
<path d="M5168 3953 c-15 -10 -28 -26 -30 -38 -2 -11 -9 -21 -15 -21 -7 -1
-23 -2 -35 -3 -13 -1 -18 -5 -13 -9 6 -4 10 -16 10 -27 0 -12 7 -20 17 -20 9
0 20 -4 24 -8 4 -4 2 -7 -4 -7 -18 0 -25 -2 -49 -11 -13 -5 -25 -4 -28 1 -4 6
-15 10 -26 10 -10 0 -19 7 -19 15 0 20 -13 19 -51 -4 -44 -27 -62 -56 -50 -80
6 -10 7 -21 4 -25 -3 -3 6 -6 22 -6 27 0 27 -1 12 -18 -10 -10 -14 -21 -11
-25 7 -7 -35 -32 -56 -32 -8 -1 -14 -7 -12 -14 2 -8 -3 -11 -11 -8 -18 7 -40
-7 -43 -27 -1 -9 2 -14 7 -10 5 3 6 10 3 16 -5 7 -2 9 8 5 19 -7 121 60 112
74 -3 6 2 9 12 7 11 -2 18 2 17 10 -2 6 0 12 5 13 31 3 48 11 66 30 12 12 15
18 7 14 -10 -6 -12 -4 -7 4 4 6 12 9 17 6 11 -7 145 105 141 118 -1 4 2 6 7 3
5 -4 21 8 34 26 28 39 46 72 22 43 -9 -11 -18 -18 -21 -17 -3 2 -9 0 -12 -4
-4 -4 -1 -4 7 1 10 5 12 4 7 -4 -11 -17 -25 -4 -19 19 7 25 -12 26 -49 3z m-2
-78 c-1 -8 -7 -20 -13 -26 -9 -9 -11 -7 -8 7 2 11 4 22 4 27 1 4 5 7 10 7 5 0
8 -7 7 -15z m-66 -69 c0 -2 -8 -10 -17 -17 -16 -13 -17 -12 -4 4 13 16 21 21
21 13z m-81 -50 c10 -12 8 -17 -11 -27 -21 -11 -22 -11 -9 4 9 12 10 17 2 17
-7 0 -9 5 -6 10 8 13 10 13 24 -4z"/>
<path d="M5112 3948 c-16 -16 -15 -28 3 -28 8 0 15 9 15 20 0 23 -2 24 -18 8z"/>
<path d="M4742 3918 c-23 -16 -42 -32 -42 -35 0 -3 7 0 15 7 10 8 19 9 28 2 8
-7 20 -2 40 18 42 39 13 45 -41 8z"/>
<path d="M1621 3924 c0 -11 3 -14 6 -6 3 7 2 16 -1 19 -3 4 -6 -2 -5 -13z"/>
<path d="M749 3907 c16 -20 91 -81 91 -74 0 2 -24 24 -52 48 -29 24 -47 36
-39 26z"/>
<path d="M1237 3908 c7 -8 9 -19 5 -23 -4 -5 -2 -5 5 -1 7 4 24 -1 38 -10 14
-9 25 -14 25 -11 0 2 -19 17 -42 32 -24 16 -37 22 -31 13z"/>
<path d="M1606 3845 c-10 -80 -11 -83 -40 -91 -18 -4 -46 3 -91 24 -83 39 -85
32 -3 -9 53 -27 68 -30 98 -23 34 9 35 10 42 74 4 36 6 70 4 75 -2 6 -7 -17
-10 -50z"/>
<path d="M4061 3854 c0 -11 3 -14 6 -6 3 7 2 16 -1 19 -3 4 -6 -2 -5 -13z"/>
<path d="M1107 3853 c-4 -3 -7 -15 -7 -25 0 -15 3 -16 19 -6 10 6 17 18 14 25
-6 14 -16 17 -26 6z"/>
<path d="M4628 3844 c-38 -20 -36 -28 2 -9 17 9 30 18 30 20 0 7 -1 6 -32 -11z"/>
<path d="M4371 3803 c-2 -32 9 -53 28 -54 9 0 4 -5 -11 -11 -32 -11 -34 -17
-15 -43 20 -26 80 -14 95 20 9 19 9 25 -1 25 -6 1 -1 8 13 16 17 10 18 13 5 9
-43 -15 -52 -16 -77 -6 -18 7 -28 19 -31 38 -3 20 -4 22 -6 6z"/>
<path d="M880 3796 c0 -2 8 -10 18 -17 15 -13 16 -12 3 4 -13 16 -21 21 -21
13z"/>
<path d="M4520 3780 c-9 -6 -10 -10 -3 -10 6 0 15 5 18 10 8 12 4 12 -15 0z"/>
<path d="M930 3756 c0 -2 8 -10 18 -17 15 -13 16 -12 3 4 -13 16 -21 21 -21
13z"/>
<path d="M1010 3696 c0 -2 14 -14 30 -26 17 -12 30 -19 30 -16 0 2 -13 14 -30
26 -16 12 -30 19 -30 16z"/>
<path d="M1110 3623 c0 -1 8 -7 18 -12 13 -7 19 -6 19 2 0 7 -9 13 -19 13 -10
0 -18 -1 -18 -3z"/>
<path d="M2660 3604 c-71 -19 -102 -33 -95 -44 7 -12 182 -14 189 -2 3 5 -7
20 -22 34 -25 23 -30 24 -72 12z"/>
<path d="M4635 3610 c-17 -7 -15 -9 12 -9 17 -1 35 4 38 9 7 12 -22 12 -50 0z"/>
<path d="M1853 3598 c-25 -12 -30 -28 -10 -29 6 0 3 -4 -8 -9 -12 -5 75 -8
213 -6 127 2 235 6 239 9 8 8 -23 10 -142 8 -50 -1 -103 3 -119 9 -16 6 -45
13 -65 16 -20 2 -47 7 -61 9 -14 2 -35 -1 -47 -7z"/>
<path d="M1160 3596 c0 -3 9 -10 20 -16 11 -6 20 -8 20 -6 0 3 -9 10 -20 16
-11 6 -20 8 -20 6z"/>
<path d="M3775 3589 c-11 -4 -122 -8 -246 -8 -238 -1 -330 -8 -307 -22 14 -9
611 -11 634 -2 10 4 8 10 -9 23 -24 18 -42 21 -72 9z"/>
<path d="M4010 3580 c-8 -5 -26 -10 -40 -11 -23 0 -23 -1 -5 -9 32 -14 148
-11 168 4 16 12 16 14 1 20 -24 9 -107 7 -124 -4z"/>
<path d="M4590 3576 c0 -15 78 -28 86 -14 11 17 21 7 19 -17 l-3 -24 49 24
c47 24 67 41 32 28 -9 -4 -14 -2 -11 3 8 12 -91 11 -116 0 -12 -6 -26 -5 -37
3 -15 9 -19 8 -19 -3z m146 -21 c-11 -8 -24 -15 -30 -15 -5 0 -1 7 10 15 10 8
24 14 29 14 6 0 1 -6 -9 -14z"/>
<path d="M4548 3563 c7 -3 16 -2 19 1 4 3 -2 6 -13 5 -11 0 -14 -3 -6 -6z"/>
<path d="M1220 3556 c0 -2 7 -7 16 -10 8 -3 12 -2 9 4 -6 10 -25 14 -25 6z"/>
<path d="M1260 3536 c0 -2 7 -7 16 -10 8 -3 12 -2 9 4 -6 10 -25 14 -25 6z"/>
<path d="M2313 3533 l517 -3 -2 -1275 c-2 -701 0 -1275 5 -1275 4 0 6 575 5
1277 l-3 1278 -520 0 -520 0 518 -2z"/>
<path d="M3408 3533 c145 -2 379 -2 520 0 141 1 23 2 -263 2 -286 0 -402 -1
-257 -2z"/>
<path d="M4655 3530 c-3 -5 -3 -10 1 -10 4 0 -1 -7 -12 -15 -17 -14 -17 -14
10 -3 15 7 23 14 17 16 -6 2 -9 8 -5 13 3 5 3 9 0 9 -3 0 -8 -4 -11 -10z"/>
<path d="M3143 3445 c0 -44 2 -61 4 -37 2 23 2 59 0 80 -2 20 -4 1 -4 -43z"/>
<path d="M4192 3500 c0 -14 2 -19 5 -12 2 6 2 18 0 25 -3 6 -5 1 -5 -13z"/>
<path d="M1350 3490 c19 -11 40 -19 45 -19 6 0 -6 8 -25 19 -19 11 -39 19 -45
19 -5 0 6 -8 25 -19z"/>
<path d="M4490 3495 c-7 -9 -11 -17 -8 -20 2 -2 12 4 21 15 9 11 13 20 8 20
-5 0 -14 -7 -21 -15z"/>
<path d="M1770 2960 c-3 -421 -6 -488 -10 -315 l-6 220 -2 -178 c-1 -98 -6
-176 -11 -173 -4 3 -11 -25 -15 -63 -7 -80 3 -223 15 -215 5 3 9 0 9 -5 0 -6
-4 -11 -9 -11 -5 0 -15 -33 -21 -72 -13 -82 -28 -128 -41 -128 -5 0 -6 -8 -2
-17 3 -10 3 -15 -2 -11 -4 4 -17 -4 -27 -18 -16 -19 -26 -24 -47 -19 -21 4
-29 0 -43 -25 -12 -21 -25 -30 -43 -30 -17 0 -24 -4 -19 -11 3 -6 1 -15 -6
-19 -16 -10 4 -76 25 -84 26 -10 76 28 101 77 13 26 30 47 36 47 6 0 20 7 30
16 16 15 18 15 24 0 3 -9 10 -14 14 -11 4 3 11 -2 14 -11 3 -8 10 -12 16 -9 6
4 8 10 5 14 -2 5 7 6 20 3 23 -4 24 -2 19 34 l-4 39 15 -40 c8 -22 12 -29 10
-15 -3 14 -11 58 -17 99 -7 40 -14 66 -17 57 -4 -8 -5 231 -3 532 1 301 1 621
0 712 -2 91 -6 -76 -8 -370z m-3 -727 c-2 -27 -3 -5 -3 47 0 52 1 74 3 48 2
-27 2 -69 0 -95z m20 -225 c-3 -8 -6 -5 -6 6 -1 11 2 17 5 13 3 -3 4 -12 1
-19z"/>
<path d="M4555 3469 c-27 -10 -37 -17 -21 -14 31 7 97 33 81 33 -5 0 -32 -8
-60 -19z"/>
<path d="M4205 2810 c0 -355 1 -500 2 -323 2 178 2 468 0 645 -1 178 -2 33 -2
-322z"/>
<path d="M4501 3190 c-3 -140 -6 -238 -8 -216 l-4 38 -25 -33 c-16 -22 -21
-36 -14 -43 5 -5 10 -19 10 -30 0 -24 75 -106 96 -106 8 0 23 15 34 33 10 17
24 37 29 44 6 7 11 19 11 27 0 13 26 16 168 19 154 2 150 3 -60 5 l-228 2 -3
258 -2 257 -4 -255z"/>
<path d="M1472 3405 c0 -16 2 -22 5 -12 2 9 2 23 0 30 -3 6 -5 -1 -5 -18z"/>
<path d="M1752 3350 c0 -14 2 -19 5 -12 2 6 2 18 0 25 -3 6 -5 1 -5 -13z"/>
<path d="M3145 2950 c0 -212 1 -298 2 -192 2 105 2 279 0 385 -1 105 -2 19 -2
-193z"/>
<path d="M4478 3290 c-1 -22 -2 -55 -4 -72 -1 -18 2 -60 6 -93 6 -50 8 -37 9
73 0 72 -1 132 -4 132 -3 0 -6 -18 -7 -40z"/>
<path d="M3123 3125 c0 -22 2 -30 4 -17 2 12 2 30 0 40 -3 9 -5 -1 -4 -23z"/>
<path d="M1750 3060 c0 -22 -4 -40 -10 -40 -13 0 -13 -53 -1 -65 5 -6 11 -21
14 -35 2 -14 5 21 6 78 0 56 -1 102 -4 102 -3 0 -5 -18 -5 -40z"/>
<path d="M1010 2921 c8 -4 62 -4 120 -1 l105 7 -120 1 c-66 1 -113 -2 -105 -7z"/>
<path d="M1308 2923 c6 -2 18 -2 25 0 6 3 1 5 -13 5 -14 0 -19 -2 -12 -5z"/>
<path d="M1378 2923 c12 -2 32 -2 45 0 12 2 2 4 -23 4 -25 0 -35 -2 -22 -4z"/>
<path d="M920 2900 c-9 -6 -10 -10 -3 -10 6 0 15 5 18 10 8 12 4 12 -15 0z"/>
<path d="M817 2822 c-31 -32 -57 -61 -57 -66 0 -5 7 -3 15 4 13 11 14 10 8 -6
-3 -10 -11 -23 -17 -27 -6 -4 5 -5 24 -2 19 3 45 7 58 8 15 1 22 7 19 17 -2
10 -12 14 -30 12 -15 -1 -27 2 -27 8 0 9 12 13 26 8 4 -2 11 8 16 22 6 17 5
26 -2 28 -7 3 -2 14 11 28 45 48 12 22 -44 -34z m23 5 c0 -2 -12 -14 -27 -28
l-28 -24 24 28 c23 25 31 32 31 24z"/>
<path d="M5165 2810 c33 -33 62 -60 64 -60 3 0 -21 27 -54 60 -33 33 -62 60
-64 60 -3 0 21 -27 54 -60z"/>
<path d="M1733 2780 c0 -36 2 -50 4 -32 2 17 2 47 0 65 -2 17 -4 3 -4 -33z"/>
<path d="M660 2673 c-36 -37 -56 -60 -44 -50 11 9 24 15 27 12 4 -3 5 -2 2 2
-3 4 16 28 42 55 26 26 45 48 42 48 -2 0 -34 -30 -69 -67z"/>
<path d="M5325 2660 c27 -27 51 -50 54 -50 3 0 -17 23 -44 50 -27 28 -51 50
-54 50 -3 0 17 -22 44 -50z"/>
<path d="M916 2682 c-18 -2 -30 -11 -33 -23 -3 -10 -9 -19 -13 -19 -4 0 -11
-11 -14 -24 -3 -13 -24 -44 -46 -68 -23 -23 -48 -59 -57 -80 -9 -21 -21 -34
-29 -31 -15 6 -33 -26 -26 -46 3 -10 0 -12 -11 -8 -10 4 -17 -2 -21 -16 -10
-39 -7 -57 9 -51 11 5 14 2 9 -12 -11 -29 -25 -44 -35 -38 -5 3 -9 2 -8 -3 1
-4 0 -11 -1 -15 -1 -5 -3 -13 -4 -20 0 -6 -10 -12 -20 -14 -11 -1 -23 -10 -28
-19 -5 -8 -15 -12 -21 -8 -7 4 -6 0 2 -10 12 -15 9 -21 -12 -18 -4 0 -6 -5 -5
-11 2 -7 -3 -12 -9 -10 -7 1 -13 -3 -13 -9 0 -5 -4 -7 -10 -4 -5 3 -10 1 -10
-4 0 -6 5 -11 11 -11 11 0 431 398 457 432 9 13 9 18 1 24 -7 4 -9 3 -5 -4 3
-6 2 -13 -4 -17 -5 -3 -10 -1 -10 4 0 6 -7 11 -15 11 -8 0 -15 9 -15 20 0 15
7 20 26 20 18 0 24 4 21 14 -4 9 4 13 25 14 17 0 35 5 39 11 5 6 6 9 3 6 -4
-3 -14 1 -22 7 -22 19 -74 33 -106 30z m17 -149 c-4 -11 -3 -14 5 -9 18 11 14
1 -8 -19 -19 -17 -19 -17 -15 4 4 22 13 41 20 41 3 0 1 -7 -2 -17z m-63 -86
c0 -2 -12 -14 -27 -28 -15 -13 -22 -17 -15 -8 6 9 8 20 4 24 -4 5 -2 5 5 1 6
-3 14 -2 18 4 6 10 15 14 15 7z m-63 -13 c-3 -3 -12 -4 -19 -1 -8 3 -5 6 6 6
11 1 17 -2 13 -5z m-3 -43 c3 -5 -2 -15 -12 -22 -15 -12 -16 -12 -5 2 7 9 10
19 6 22 -3 4 -4 7 0 7 3 0 8 -4 11 -9z m-114 -114 c0 -2 -12 -14 -27 -28 l-28
-24 24 28 c23 25 31 32 31 24z m-70 -70 c0 -2 -10 -12 -22 -23 l-23 -19 19 23
c18 21 26 27 26 19z"/>
<path d="M4533 2683 c9 -2 23 -2 30 0 6 3 -1 5 -18 5 -16 0 -22 -2 -12 -5z"/>
<path d="M4520 2661 c0 -7 -5 -9 -12 -5 -7 4 -8 3 -4 -4 4 -8 36 -12 84 -12
72 1 75 2 52 15 -32 18 -104 20 -94 3 5 -9 2 -9 -9 1 -12 9 -17 10 -17 2z"/>
<path d="M1158 2623 c39 -2 105 -2 145 0 39 1 7 3 -73 3 -80 0 -112 -2 -72 -3z"/>
<path d="M4507 2623 c-4 -3 -8 -61 -9 -127 -1 -104 -2 -112 -8 -56 -4 36 -7
57 -8 47 -1 -11 -11 -26 -23 -36 -17 -14 -23 -37 -34 -131 -8 -63 -16 -124
-20 -135 -4 -13 3 -34 19 -58 14 -21 26 -43 26 -48 0 -6 8 -3 18 7 16 17 17
16 22 -12 10 -52 20 118 20 337 l0 209 193 3 192 2 -191 3 c-105 1 -194 -1
-197 -5z"/>
<path d="M1046 2613 c-4 -5 -12 -8 -17 -8 -5 0 -9 -4 -10 -10 0 -5 -6 -17 -12
-25 -6 -8 2 -3 18 11 17 15 37 29 45 32 13 5 13 6 -1 6 -9 1 -19 -2 -23 -6z"/>
<path d="M4940 2596 c0 -2 8 -10 18 -17 15 -13 16 -12 3 4 -13 16 -21 21 -21
13z"/>
<path d="M5498 2497 c40 -40 70 -76 67 -80 -3 -4 -2 -5 2 -2 3 3 18 -5 32 -17
14 -12 -17 21 -69 75 -52 53 -97 97 -100 97 -2 0 28 -33 68 -73z"/>
<path d="M435 2458 c-50 -51 -63 -67 -29 -35 33 32 63 55 67 52 4 -3 5 -2 2 2
-3 4 9 22 27 40 17 18 30 33 27 33 -2 0 -45 -42 -94 -92z"/>
<path d="M5090 2455 c30 -30 57 -55 59 -55 3 0 -19 25 -49 55 -30 30 -57 55
-59 55 -3 0 19 -25 49 -55z"/>
<path d="M3140 1745 c-2 -401 -7 -660 -10 -575 -5 156 -19 184 -21 42 0 -52
-3 -71 -9 -57 -6 15 -9 7 -10 -30 0 -27 -7 -72 -14 -100 -15 -56 -8 -75 30
-75 16 0 24 6 24 18 0 11 3 13 8 5 5 -8 13 -9 22 -3 13 9 13 10 0 11 -8 0 -4
5 10 9 24 8 24 8 3 9 l-23 1 -3 738 -2 737 -5 -730z m-33 -692 c-2 -16 -4 -3
-4 27 0 30 2 43 4 28 2 -16 2 -40 0 -55z"/>
<path d="M205 2238 c-120 -123 -121 -125 -17 -23 62 61 115 109 117 108 3 -2
4 -1 3 1 -2 2 6 13 16 25 11 12 17 21 15 21 -2 0 -63 -60 -134 -132z"/>
<path d="M5698 2309 c7 -9 8 -20 4 -24 -4 -5 -2 -5 4 -2 6 3 34 -18 63 -47 36
-37 49 -55 40 -59 -10 -4 -10 -6 -2 -6 7 -1 10 -8 6 -18 -5 -12 -3 -14 8 -8 7
5 4 -3 -8 -18 l-22 -28 21 -50 21 -50 -22 -39 c-12 -22 -21 -43 -20 -47 1 -5
-9 -14 -22 -20 l-24 -13 25 -1 c21 -1 19 -2 -9 -9 -39 -9 -64 -3 -54 13 3 5 2
7 -4 4 -11 -7 -87 66 -78 74 3 3 -2 6 -10 6 -20 0 68 -92 107 -113 43 -22 129
-18 169 9 65 43 86 125 50 195 -11 20 -72 89 -137 152 -65 63 -112 108 -106
99z m177 -179 c27 -27 47 -50 44 -50 -3 0 -27 23 -54 50 -27 28 -47 50 -44 50
3 0 27 -22 54 -50z m45 -235 c0 -9 -64 -45 -80 -45 -8 0 6 11 30 24 25 13 46
24 48 25 1 0 2 -1 2 -4z m-147 -42 c-7 -2 -19 -2 -25 0 -7 3 -2 5 12 5 14 0
19 -2 13 -5z"/>
<path d="M3123 2225 c0 -33 2 -45 4 -27 2 18 2 45 0 60 -2 15 -4 0 -4 -33z"/>
<path d="M5350 2207 c0 -2 15 -16 33 -33 l32 -29 -29 33 c-28 30 -36 37 -36
29z"/>
<path d="M4191 2124 c0 -11 3 -14 6 -6 3 7 2 16 -1 19 -3 4 -6 -2 -5 -13z"/>
<path d="M5435 2120 c10 -11 20 -20 23 -20 3 0 -3 9 -13 20 -10 11 -20 20 -23
20 -3 0 3 -9 13 -20z"/>
<path d="M288 2043 c-45 -19 -68 -42 -68 -68 0 -24 -35 -69 -62 -78 -10 -4
-18 -11 -18 -17 0 -6 -4 -8 -10 -5 -5 3 -10 1 -10 -4 0 -18 -17 -13 -52 16
-27 23 -30 23 -13 4 49 -57 154 -70 216 -28 19 13 33 29 31 35 -1 7 4 11 10
10 7 -2 12 3 10 10 -1 6 4 11 10 10 7 -2 12 3 10 10 -1 8 1 11 6 8 5 -3 32 19
61 48 29 30 49 56 43 60 -5 3 -17 -3 -27 -14 -10 -11 -22 -17 -26 -14 -5 3 -9
0 -9 -5 0 -6 -5 -11 -11 -11 -6 0 -9 9 -6 20 3 11 2 20 -1 21 -41 5 -56 4 -84
-8z m162 4 c0 -2 -19 -21 -42 -42 l-43 -40 40 43 c36 39 45 47 45 39z"/>
<path d="M4182 2030 c0 -14 2 -19 5 -12 2 6 2 18 0 25 -3 6 -5 1 -5 -13z"/>
<path d="M23 1985 c0 -27 2 -38 4 -22 2 15 2 37 0 50 -2 12 -4 0 -4 -28z"/>
<path d="M1496 1995 c3 -22 6 -48 7 -57 2 -21 13 -14 20 12 3 11 1 18 -4 15
-4 -3 -11 7 -15 22 -10 46 -15 51 -8 8z"/>
<path d="M4480 1999 c0 -12 -4 -18 -11 -13 -6 3 -14 2 -18 -3 -3 -6 -19 -14
-35 -20 -24 -7 -33 -20 -48 -64 -10 -30 -18 -55 -18 -57 1 -8 -32 -62 -39 -62
-5 0 -11 -23 -15 -50 -4 -29 -11 -48 -16 -45 -6 4 -10 -7 -10 -24 0 -26 4 -31
24 -31 13 0 27 6 29 13 4 9 8 8 16 -3 6 -8 11 -11 11 -6 0 5 8 2 17 -5 15 -12
16 -12 10 4 -4 10 -2 17 6 18 7 1 19 2 27 3 8 0 15 12 15 26 3 58 5 71 14 65
5 -3 16 2 24 10 9 8 20 15 25 15 6 0 13 6 15 13 4 9 6 9 6 -1 1 -7 5 -11 11
-7 5 3 34 -3 65 -13 31 -11 58 -15 61 -11 2 4 12 5 20 2 20 -7 38 18 21 29
-11 7 12 13 36 9 17 -3 4 11 -44 43 l-51 34 -45 -24 c-25 -13 -49 -21 -54 -18
-15 9 -10 34 6 34 11 0 15 9 13 31 -2 27 -4 28 -15 13 -7 -10 -13 -16 -14 -13
0 2 -2 12 -4 22 -2 10 1 15 8 11 7 -3 0 4 -15 16 -22 17 -26 27 -21 51 3 16 3
29 -1 29 -3 0 -6 -9 -6 -21z m177 -171 c-1 -6 4 -13 12 -16 8 -3 11 0 7 7 -10
15 -1 14 12 -2 8 -10 6 -13 -8 -14 -10 -1 -24 5 -31 13 -6 8 -8 14 -3 14 4 0
-1 7 -12 16 -18 14 -18 15 3 4 13 -6 22 -16 20 -22z"/>
<path d="M4172 1980 c0 -14 2 -19 5 -12 2 6 2 18 0 25 -3 6 -5 1 -5 -13z"/>
<path d="M4161 1924 c0 -11 3 -14 6 -6 3 7 2 16 -1 19 -3 4 -6 -2 -5 -13z"/>
<path d="M3110 1820 c-2 -66 -5 -86 -10 -65 -5 20 -7 0 -7 -60 0 -80 1 -84 7
-35 6 48 7 41 9 -50 5 -197 19 -158 19 55 0 116 -3 219 -8 230 -6 13 -9 -12
-10 -75z"/>
<path d="M4563 1895 c0 -8 4 -12 9 -9 5 3 6 10 3 15 -9 13 -12 11 -12 -6z"/>
<path d="M1777 1879 c7 -26 19 -32 20 -9 1 10 -4 21 -12 23 -9 4 -11 -1 -8
-14z"/>
<path d="M1821 1894 c-1 -15 30 -106 35 -101 2 2 -5 28 -15 58 -11 30 -20 49
-20 43z"/>
<path d="M4131 1828 c-13 -40 -45 -114 -71 -164 -46 -90 -45 -116 2 -59 33 41
50 84 43 106 -4 12 -2 18 5 17 6 -2 17 12 25 30 8 18 10 30 5 27 -14 -9 -12 4
6 59 9 26 14 49 12 51 -2 3 -15 -28 -27 -67z m-10 -75 c-12 -20 -14 -14 -5 12
4 9 9 14 11 11 3 -2 0 -13 -6 -23z m-75 -155 c-9 -12 -16 -19 -16 -15 0 11 24
47 28 42 2 -2 -3 -14 -12 -27z"/>
<path d="M1211 1770 c-58 -45 -111 -92 -71 -63 86 61 152 115 138 113 -2 -1
-32 -23 -67 -50z"/>
<path d="M1873 1750 c2 -8 7 -25 11 -38 4 -12 4 -22 -1 -21 -4 1 -15 1 -23 0
-13 -1 -13 -2 0 -11 11 -7 12 -10 2 -10 -9 0 -11 -7 -7 -21 5 -14 3 -19 -3
-15 -6 3 -13 2 -17 -4 -3 -6 0 -13 8 -16 8 -3 17 -14 20 -26 4 -14 11 -18 25
-13 11 3 23 1 27 -5 3 -6 11 -8 16 -5 5 4 12 -2 16 -12 3 -10 13 -22 20 -26
12 -7 12 -12 -1 -32 -14 -21 -14 -24 1 -37 14 -11 17 -11 21 1 4 11 6 11 12 0
7 -10 12 -10 23 -1 7 7 18 8 22 4 5 -4 -4 10 -19 30 -15 21 -33 36 -38 35 -6
-1 -13 4 -16 12 -3 9 0 11 9 6 8 -5 11 -4 6 1 -5 5 -14 9 -19 9 -6 0 -13 6
-16 14 -3 9 0 11 8 6 9 -6 9 -3 1 14 -7 11 -14 21 -17 21 -3 0 -2 -5 2 -12 4
-7 3 -8 -4 -4 -6 4 -8 14 -5 23 5 12 3 14 -7 8 -8 -5 -11 -4 -7 2 4 6 -7 39
-24 74 -16 35 -28 57 -26 49z m128 -253 c-13 -13 -26 -3 -16 12 3 6 11 8 17 5
6 -4 6 -10 -1 -17z"/>
<path d="M4780 1756 c0 -2 8 -10 18 -17 15 -13 16 -12 3 4 -13 16 -21 21 -21
13z"/>
<path d="M4830 1716 c0 -2 8 -10 18 -17 15 -13 16 -12 3 4 -13 16 -21 21 -21
13z"/>
<path d="M1061 1652 c-28 -27 -53 -47 -55 -45 -1 2 -11 -7 -22 -19 -13 -16
-14 -19 -2 -10 11 9 18 10 23 2 4 -7 13 -6 28 2 12 7 33 13 47 14 46 2 50 4
50 18 0 8 6 17 13 19 7 4 6 6 -4 6 -21 1 -31 25 -17 39 6 6 6 12 0 16 -5 3
-33 -16 -61 -42z m50 25 c-6 -8 -7 -18 -3 -22 4 -5 1 -5 -6 -1 -10 6 -10 11
-1 22 6 8 14 14 16 14 3 0 0 -6 -6 -13z m-33 -33 c-1 -5 -9 -9 -16 -10 -10 -2
-11 1 -1 12 12 14 24 13 17 -2z"/>
<path d="M4870 1686 c0 -2 8 -10 18 -17 15 -13 16 -12 3 4 -13 16 -21 21 -21
13z"/>
<path d="M4920 1646 c0 -2 8 -10 18 -17 15 -13 16 -12 3 4 -13 16 -21 21 -21
13z"/>
<path d="M1529 1609 l-24 -20 28 17 c15 9 27 18 27 20 0 8 -8 4 -31 -17z"/>
<path d="M4440 1614 c0 -1 13 -12 29 -23 26 -19 29 -19 26 -4 -1 11 -9 17 -20
15 -9 -2 -15 1 -11 6 3 5 -1 9 -9 9 -8 0 -15 -2 -15 -3z"/>
<path d="M5000 1575 c13 -14 26 -25 28 -25 3 0 -5 11 -18 25 -13 14 -26 25
-28 25 -3 0 5 -11 18 -25z"/>
<path d="M1304 1565 c-4 -8 -10 -13 -14 -10 -11 7 -42 -24 -34 -36 3 -5 13 -5
24 1 13 7 19 6 24 -6 4 -11 12 -14 24 -9 9 3 19 7 22 8 3 1 5 -2 5 -8 0 -5 -6
-10 -14 -12 -7 -1 -19 -7 -25 -13 -8 -8 -6 -9 8 -4 15 6 17 4 11 -6 -5 -8 8
-1 28 14 20 16 34 33 30 39 -3 6 -1 7 6 3 12 -8 76 32 66 42 -11 11 -40 11
-47 -1 -6 -9 -10 -9 -15 -1 -12 17 -93 17 -99 -1z m156 1 c0 -2 -12 -11 -27
-20 l-28 -17 24 20 c23 21 31 25 31 17z"/>
<path d="M4343 1574 c-7 -3 -9 -12 -6 -21 4 -11 2 -14 -5 -9 -8 5 -10 1 -5
-10 5 -13 3 -15 -7 -9 -8 5 -11 4 -7 -3 9 -14 -3 -43 -14 -36 -5 3 -6 -1 -3
-9 3 -8 0 -18 -7 -23 -8 -4 -10 -3 -5 4 4 7 2 12 -3 12 -6 0 -11 -4 -11 -10 0
-16 -17 -11 -24 7 -4 9 -1 20 6 25 10 6 10 8 1 8 -9 0 -11 10 -6 31 6 30 5 31
-16 19 -16 -8 -21 -18 -18 -31 6 -24 -2 -24 -18 -2 -11 15 -15 15 -29 4 -9 -7
-16 -10 -16 -5 0 4 -6 0 -13 -10 -8 -10 -12 -29 -9 -41 2 -13 -3 -47 -12 -77
-14 -48 -19 -55 -60 -71 -44 -18 -91 -59 -154 -135 -39 -47 -126 -97 -164 -94
-16 1 -28 -3 -28 -8 0 -6 -4 -9 -9 -6 -5 4 -14 -6 -20 -21 -10 -27 -10 -27 -9
-3 2 14 -1 27 -6 30 -4 3 -9 -28 -10 -67 -1 -67 -8 -91 -18 -61 -3 7 -7 2 -10
-10 -5 -19 -2 -22 22 -22 35 0 45 -23 19 -46 -10 -9 -19 -14 -19 -9 0 4 -6 2
-13 -4 -8 -6 -17 -8 -20 -4 -4 3 -7 1 -7 -5 0 -7 6 -12 13 -12 8 0 7 -4 -3
-10 -32 -20 5 -9 51 16 27 15 46 31 43 35 -3 5 3 6 12 2 11 -4 15 -2 11 4 -4
6 1 10 11 9 9 0 16 5 14 12 -1 8 2 11 8 7 17 -10 157 94 257 190 75 72 92 95
89 113 -3 13 -1 20 5 17 5 -4 6 -12 2 -18 -3 -7 3 -3 15 7 23 20 30 32 12 21
-5 -3 -10 -1 -10 5 0 6 -5 8 -10 5 -7 -4 -9 3 -6 19 6 34 14 46 30 46 18 0 26
-35 12 -51 -6 -8 -1 -5 12 5 24 21 29 31 10 21 -7 -4 -4 2 8 12 34 29 86 112
78 125 -4 7 -3 8 4 4 7 -4 21 13 37 44 25 49 47 101 42 99 -1 0 -7 -3 -14 -5z
m-269 -403 c3 -4 -7 -19 -22 -32 -25 -22 -25 -22 -8 -1 11 12 16 22 12 22 -4
0 -4 5 -1 10 8 12 12 13 19 1z m-64 -74 c0 -2 -23 -23 -50 -46 -28 -24 -49
-37 -48 -29 2 7 -3 12 -9 11 -17 -4 -16 9 2 33 9 12 14 14 15 6 0 -7 4 -10 10
-7 6 4 7 -1 3 -12 -6 -16 -5 -16 10 -4 9 7 14 17 11 22 -3 5 1 6 9 3 8 -3 20
2 27 11 12 14 20 19 20 12z m-320 -231 c0 -2 -7 -7 -16 -10 -8 -3 -12 -2 -9 4
6 10 25 14 25 6z"/>
<path d="M4515 1571 c-3 -5 -2 -12 3 -15 5 -3 9 1 9 9 0 17 -3 19 -12 6z"/>
<path d="M3985 1534 c-9 -15 -12 -23 -6 -20 11 7 35 46 28 46 -3 0 -12 -12
-22 -26z"/>
<path d="M4271 1534 c0 -11 3 -14 6 -6 3 7 2 16 -1 19 -3 4 -6 -2 -5 -13z"/>
<path d="M4540 1546 c0 -2 14 -14 30 -26 17 -12 30 -19 30 -16 0 2 -13 14 -30
26 -16 12 -30 19 -30 16z"/>
<path d="M1921 1524 c0 -11 3 -14 6 -6 3 7 2 16 -1 19 -3 4 -6 -2 -5 -13z"/>
<path d="M889 1503 l-24 -28 28 24 c25 23 32 31 24 31 -2 0 -14 -12 -28 -27z"/>
<path d="M5073 1505 c0 -8 3 -13 5 -10 3 3 17 -5 31 -17 21 -19 20 -17 -3 10
-35 37 -33 36 -33 17z"/>
<path d="M1230 1496 c0 -12 9 -16 35 -16 27 0 33 3 29 15 -5 12 -10 13 -20 4
-11 -9 -18 -8 -29 1 -12 10 -15 10 -15 -4z"/>
<path d="M3949 1483 c-13 -16 -12 -17 4 -4 16 13 21 21 13 21 -2 0 -10 -8 -17
-17z"/>
<path d="M1060 1472 c-19 -9 -37 -21 -39 -26 -2 -5 -11 -16 -20 -25 -9 -9 -22
-30 -29 -46 -13 -28 -12 -31 13 -53 15 -13 40 -26 56 -29 16 -3 34 -12 40 -19
9 -12 9 -13 -4 -9 -8 4 -18 2 -22 -4 -3 -6 -1 -11 5 -11 6 0 8 -6 4 -12 -4 -7
5 -2 19 11 15 13 24 29 20 35 -3 6 -3 8 2 4 11 -10 76 42 68 55 -3 5 -2 7 4 4
11 -7 87 52 78 61 -3 3 -13 7 -21 8 -33 5 -42 13 -37 32 4 16 -2 20 -34 25
-21 3 -45 7 -53 10 -8 3 -31 -2 -50 -11z m190 -66 c0 -2 -8 -10 -17 -17 -16
-13 -17 -12 -4 4 13 16 21 21 21 13z"/>
<path d="M1670 1470 c6 -11 13 -20 16 -20 2 0 0 9 -6 20 -6 11 -13 20 -16 20
-2 0 0 -9 6 -20z"/>
<path d="M4620 1486 c0 -2 8 -10 18 -17 15 -13 16 -12 3 4 -13 16 -21 21 -21
13z"/>
<path d="M1295 1452 c3 -3 -3 -15 -12 -26 -13 -15 -10 -14 10 3 32 29 31 28
12 28 -8 0 -13 -3 -10 -5z"/>
<path d="M4675 1440 c10 -11 20 -20 23 -20 3 0 -3 9 -13 20 -10 11 -20 20 -23
20 -3 0 3 -9 13 -20z"/>
<path d="M802 1423 c-54 -78 -54 -72 -52 -406 0 -171 3 -313 5 -316 3 -2 5
122 5 277 0 239 2 281 14 276 17 -6 66 23 66 40 0 6 9 17 21 24 12 7 18 16 15
19 -3 4 -1 12 4 18 15 18 1 45 -22 45 -14 0 -18 5 -14 16 5 13 2 15 -14 11
-17 -4 -19 -3 -9 9 6 8 9 14 6 14 -3 0 -14 -12 -25 -27z"/>
<path d="M2065 1430 c10 -11 20 -20 23 -20 3 0 -3 9 -13 20 -10 11 -20 20 -23
20 -3 0 3 -9 13 -20z"/>
<path d="M3909 1433 c-13 -16 -12 -17 4 -4 9 7 17 15 17 17 0 8 -8 3 -21 -13z"/>
<path d="M4735 1390 c10 -11 20 -20 23 -20 3 0 -3 9 -13 20 -10 11 -20 20 -23
20 -3 0 3 -9 13 -20z"/>
<path d="M5194 1383 c9 -18 -5 -44 -28 -53 -18 -7 -21 -14 -18 -54 4 -48 22
-65 22 -21 0 16 6 25 15 25 12 0 15 -21 17 -117 l2 -118 6 120 c5 97 6 73 8
-125 1 -161 -2 -240 -8 -230 -7 11 -10 7 -10 -18 0 -18 -4 -31 -8 -28 -4 2
-18 -11 -31 -29 -12 -19 -40 -40 -62 -49 -21 -9 -39 -19 -39 -24 0 -4 -13 -15
-29 -25 -28 -16 -30 -16 -43 0 -18 25 -37 27 -46 6 -4 -10 -9 115 -12 277 l-5
295 -3 -318 c-2 -264 0 -323 13 -347 16 -30 60 -70 79 -70 6 0 -3 9 -20 19
-18 11 -35 24 -39 30 -3 6 10 0 31 -14 20 -14 49 -25 63 -26 l26 -1 -25 -8
c-20 -6 -15 -8 25 -9 55 -1 122 30 109 51 -4 7 -3 8 4 4 6 -4 18 6 27 23 13
26 15 86 15 403 0 248 -4 368 -10 358 -7 -11 -8 -7 -4 15 3 20 0 37 -11 50 -9
11 -14 15 -11 8z"/>
<path d="M3829 1343 l-34 -38 38 34 c20 19 37 36 37 38 0 8 -8 0 -41 -34z"/>
<path d="M2129 1357 c6 -8 7 -17 3 -21 -4 -4 0 -6 8 -4 8 2 14 -2 13 -8 -1 -6
5 -11 13 -11 10 0 6 9 -13 29 -27 29 -45 39 -24 15z"/>
<path d="M5165 1350 c3 -5 8 -10 11 -10 2 0 4 5 4 10 0 6 -5 10 -11 10 -5 0
-7 -4 -4 -10z"/>
<path d="M4810 1325 c13 -14 26 -25 28 -25 3 0 -5 11 -18 25 -13 14 -26 25
-28 25 -3 0 5 -11 18 -25z"/>
<path d="M1780 1296 c0 -2 8 -10 18 -17 15 -13 16 -12 3 4 -13 16 -21 21 -21
13z"/>
<path d="M2200 1297 c0 -2 15 -16 33 -33 l32 -29 -29 33 c-28 30 -36 37 -36
29z"/>
<path d="M3739 1263 l-24 -28 28 24 c25 23 32 31 24 31 -2 0 -14 -12 -28 -27z"/>
<path d="M4890 1255 c13 -14 26 -25 28 -25 3 0 -5 11 -18 25 -13 14 -26 25
-28 25 -3 0 5 -11 18 -25z"/>
<path d="M3092 1230 c0 -14 2 -19 5 -12 2 6 2 18 0 25 -3 6 -5 1 -5 -13z"/>
<path d="M1830 1236 c0 -2 8 -10 18 -17 15 -13 16 -12 3 4 -13 16 -21 21 -21
13z"/>
<path d="M3689 1223 c-13 -16 -12 -17 4 -4 16 13 21 21 13 21 -2 0 -10 -8 -17
-17z"/>
<path d="M1053 1185 c0 -22 2 -30 4 -17 2 12 2 30 0 40 -3 9 -5 -1 -4 -23z"/>
<path d="M3645 1194 c-11 -8 -19 -19 -18 -24 2 -5 -7 -15 -20 -21 -19 -11 -20
-10 -10 3 7 8 -28 -6 -77 -31 -49 -25 -87 -47 -85 -49 2 -2 27 9 55 23 34 17
56 23 62 17 7 -7 22 -3 45 11 32 19 37 19 47 4 13 -17 38 -8 42 15 1 10 -7 13
-29 10 l-30 -5 22 32 c25 35 25 37 -4 15z m-65 -64 c0 -5 -8 -10 -17 -10 -15
0 -16 2 -3 10 19 12 20 12 20 0z"/>
<path d="M2335 1185 c11 -9 29 -21 40 -26 l20 -10 -20 16 c-11 9 -29 21 -40
26 l-20 10 20 -16z"/>
<path d="M1910 1145 c19 -19 36 -35 39 -35 3 0 -10 16 -29 35 -19 19 -36 35
-39 35 -3 0 10 -16 29 -35z"/>
<path d="M2400 1146 c0 -3 9 -10 20 -16 11 -6 20 -8 20 -6 0 3 -9 10 -20 16
-11 6 -20 8 -20 6z"/>
<path d="M1980 1075 c13 -14 26 -25 28 -25 3 0 -5 11 -18 25 -13 14 -26 25
-28 25 -3 0 5 -11 18 -25z"/>
<path d="M3390 1060 c-13 -8 -13 -10 2 -10 9 0 20 5 23 10 8 13 -5 13 -25 0z"/>
<path d="M2610 1043 c45 -20 190 -56 197 -50 2 3 -21 11 -52 17 -32 7 -82 21
-113 31 -65 22 -81 24 -32 2z"/>
<path d="M3275 1025 c-44 -13 -73 -24 -65 -24 17 -1 150 36 158 44 9 8 -8 5
-93 -20z"/>
<path d="M2040 1026 c0 -2 8 -10 18 -17 15 -13 16 -12 3 4 -13 16 -21 21 -21
13z"/>
<path d="M2080 996 c0 -2 8 -10 18 -17 15 -13 16 -12 3 4 -13 16 -21 21 -21
13z"/>
<path d="M2184 931 c-8 -8 7 -20 20 -15 8 3 17 0 22 -7 5 -8 3 -10 -7 -4 -10
5 -11 5 -4 -3 15 -15 165 -95 170 -90 3 2 -21 17 -54 32 -50 24 -57 31 -53 51
3 21 1 23 -19 18 -20 -5 -22 -4 -12 8 9 12 5 14 -24 14 -19 0 -36 -2 -39 -4z"/>
<path d="M3580 860 c0 -5 5 -10 10 -10 6 0 10 5 10 10 0 6 -4 10 -10 10 -5 0
-10 -4 -10 -10z"/>
<path d="M3550 800 c-19 -11 -30 -19 -25 -19 6 0 26 8 45 19 19 11 31 19 25
19 -5 0 -26 -8 -45 -19z"/>
<path d="M2496 765 c17 -7 44 -16 60 -20 25 -4 24 -3 -6 8 -19 8 -46 17 -60
20 -19 5 -17 3 6 -8z"/>
<path d="M2605 730 c11 -5 27 -9 35 -9 9 0 8 4 -5 9 -11 5 -27 9 -35 9 -9 0
-8 -4 5 -9z"/>
<path d="M3368 733 c7 -3 16 -2 19 1 4 3 -2 6 -13 5 -11 0 -14 -3 -6 -6z"/>
<path d="M3328 723 c7 -3 16 -2 19 1 4 3 -2 6 -13 5 -11 0 -14 -3 -6 -6z"/>
<path d="M2668 713 c7 -3 16 -2 19 1 4 3 -2 6 -13 5 -11 0 -14 -3 -6 -6z"/>
<path d="M2718 703 c7 -3 16 -2 19 1 4 3 -2 6 -13 5 -11 0 -14 -3 -6 -6z"/>
<path d="M3228 703 c6 -2 18 -2 25 0 6 3 1 5 -13 5 -14 0 -19 -2 -12 -5z"/>
<path d="M3178 693 c6 -2 18 -2 25 0 6 3 1 5 -13 5 -14 0 -19 -2 -12 -5z"/>
<path d="M2853 683 c9 -2 25 -2 35 0 9 3 1 5 -18 5 -19 0 -27 -2 -17 -5z"/>
<path d="M3088 683 c12 -2 30 -2 40 0 9 3 -1 5 -23 4 -22 0 -30 -2 -17 -4z"/>
<path d="M751 584 c0 -11 3 -14 6 -6 3 7 2 16 -1 19 -3 4 -6 -2 -5 -13z"/>
<path d="M1051 584 c0 -11 3 -14 6 -6 3 7 2 16 -1 19 -3 4 -6 -2 -5 -13z"/>
<path d="M802 508 c16 -16 34 -28 41 -28 6 0 3 6 -8 12 -11 6 -29 18 -40 27
-12 9 -8 4 7 -11z"/>
<path d="M1002 526 c-17 -27 -9 -36 14 -15 13 12 24 23 24 24 0 7 -32 -1 -38
-9z"/>
<path d="M957 489 c7 -7 15 -10 18 -7 3 3 -2 9 -12 12 -14 6 -15 5 -6 -5z"/>
<path d="M883 473 c15 -2 37 -2 50 0 12 2 0 4 -28 4 -27 0 -38 -2 -22 -4z"/>
</g>
</svg>
